<svg width="85" height="53" viewBox="0 0 85 53" fill="none" xmlns="http://www.w3.org/2000/svg">
<g clip-path="url(#clip0_3880_6243)">
<path d="M0.189487 24.7093C0.908601 21.1619 2.87887 18.4696 5.53763 16.201C9.79251 12.5708 14.772 10.2978 20.0661 8.67144C22.0649 8.05771 24.1139 7.60189 26.1378 7.07422C25.9481 7.74702 25.7567 8.41946 25.5689 9.09263C25.415 9.64363 25.5189 10.0283 26.1695 10.145C26.3347 10.1746 26.4667 10.3879 26.614 10.5166C26.5487 10.5257 26.4765 10.5206 26.4186 10.5462C22.8033 12.1554 19.529 14.2344 17.0956 17.435C15.8302 19.1004 14.9503 20.9544 14.9222 23.0891C14.8682 27.1766 17.0898 29.9914 20.1909 32.2873C20.3447 32.4427 20.4782 32.6272 20.6554 32.7486C24.1708 35.1572 28.0253 36.7749 32.1879 37.6683C32.3757 37.7281 32.5598 37.8109 32.7524 37.8441C35.3094 38.2846 37.8555 38.8236 40.4293 39.1204C42.719 39.3851 45.0397 39.3811 47.3469 39.4956C48.3807 39.4774 49.4255 39.5536 50.4465 39.4227C53.3942 39.0452 56.3358 38.6176 59.2714 38.1402C60.6571 37.913 62.0122 37.5133 63.3815 37.1921L64.5265 36.9222L65.1891 36.7556C69.7707 35.6065 74.0548 33.82 77.8017 30.8779C78.2444 30.5304 78.5259 30.1982 78.3122 29.5393C77.8323 28.0547 78.4216 26.4951 79.6567 25.7037C80.9947 24.8471 82.5609 24.9489 83.7701 25.971C84.8572 26.8903 85.2605 28.6126 84.6891 29.893C84.0495 31.3257 82.6218 32.081 81.0228 31.9249C80.6289 31.8884 80.1009 31.9869 79.8194 32.2337C75.5273 35.9931 70.6984 38.8651 65.4436 41.0487C65.3646 41.0878 65.2883 41.1323 65.2154 41.1818C65.0896 41.2183 64.9601 41.2464 64.8387 41.2949C60.3223 43.1127 55.6543 44.3978 50.855 45.1851C49.2931 45.4404 47.701 45.5133 46.1224 45.6672C41.1484 45.7835 36.1912 45.5578 31.2544 44.9269L30.5196 44.8339L29.2122 44.6483C28.9975 44.6005 28.7841 44.5469 28.5682 44.5054C25.7738 43.9693 22.9703 43.477 20.1883 42.883C18.7256 42.5708 17.3005 42.0807 15.8583 41.6727C15.657 41.587 15.4594 41.4925 15.2541 41.4174C11.6315 40.0882 8.20951 38.3965 5.23423 35.8961C3.1232 34.1234 2.01098 32.8456 0.770759 30.2653C0.529352 29.7624 0.19131 28.7654 0.0720652 27.7703C-0.0540776 26.7503 -0.0144252 25.7166 0.189487 24.7093ZM78.4045 31.5529C78.4299 31.5817 78.4568 31.6092 78.4851 31.6353L73.3816 35.5008C73.603 35.4245 73.8524 35.3819 74.0563 35.2615C75.8967 34.1767 77.7444 33.1024 79.5557 31.9705C80.234 31.5467 80.8583 31.189 81.7105 31.1208C83.4452 30.983 84.5498 29.3704 84.1786 27.7331C83.7953 26.0407 82.1882 25.1148 80.5319 25.6319C78.9296 26.1326 78.1321 27.88 78.8355 29.474C79.1203 30.1194 78.9205 30.5289 78.4223 30.8918C77.7499 31.3823 77.0709 31.8636 76.3945 32.3504L76.4725 32.5113L78.4045 31.5529Z" fill="#00A6CE"/>
<path d="M59.3374 51.9415C55.7419 51.358 52.1412 50.8056 48.5474 50.2101C47.2346 49.9913 47.2416 49.9523 47.4669 48.6242C47.2058 48.5512 46.9396 48.4644 46.6683 48.3999C45.6783 48.1651 45.57 47.9689 45.8405 46.9595C45.9543 46.5347 46.0291 46.0992 46.1217 45.6689C47.7003 45.5136 49.2943 45.4432 50.8543 45.1869C55.6536 44.3995 60.3217 43.1145 64.838 41.2966C64.9591 41.2481 65.0889 41.2208 65.2147 41.1836C66.1789 41.681 66.3583 41.9603 66.2328 43.07C65.9167 45.8688 65.564 48.6628 65.2424 51.4609C65.1695 52.0772 64.7953 52.4568 64.2728 52.576C63.7994 52.6839 60.5 52.13 59.3374 51.9415ZM48.0096 49.5271C48.0581 49.6241 53.9973 50.4715 56.6812 50.8847C58.863 51.2206 61.0408 51.5867 63.2262 51.8966C64.3723 52.0589 64.6378 51.8237 64.7877 50.6696C64.9441 49.4662 65.0761 48.2577 65.2224 47.0521C65.3872 45.693 65.567 44.3354 65.7198 42.9752C65.8051 42.2138 65.5513 41.9494 64.7764 41.9939C64.4482 44.4973 64.108 47.0113 63.7918 49.5285C63.6565 50.6028 63.2484 50.973 62.2336 50.8227C58.0837 50.2084 53.9345 49.5903 49.7858 48.9684C49.2279 48.8853 48.6408 48.7861 48.0591 48.7022C47.9993 48.9899 47.9392 49.3896 48.0096 49.5271Z" fill="#4CBB17"/>
<path d="M32.188 37.6674C28.0253 36.774 24.1708 35.1564 20.6555 32.7478C20.4783 32.6263 20.3448 32.4418 20.1909 32.2865C21.8504 26.7193 23.5091 21.1528 25.1671 15.5871C25.6671 13.902 26.1327 12.2067 26.6141 10.5157C26.4682 10.387 26.3348 10.1737 26.1696 10.1442C25.519 10.0275 25.4151 9.64274 25.569 9.09174C25.7568 8.41857 25.9482 7.74613 26.1378 7.07333C26.4339 6.03769 26.7213 4.99876 27.0291 3.96713C27.2873 3.1058 27.5969 2.9005 28.51 2.84908C31.0167 2.70722 33.523 2.5661 36.0275 2.39361C36.6817 2.3484 37.1328 2.47202 37.3403 3.17363C37.3906 3.34502 37.71 3.5423 37.9084 3.54522C38.3657 3.55105 38.5739 3.7487 38.7202 4.1553C38.8751 4.5867 39.106 4.99038 39.3036 5.40609L39.8656 6.68788C40.8635 8.99328 41.8616 11.2986 42.8598 13.6037C43.149 14.271 43.4371 14.9387 43.7693 15.7078C44.3035 15.116 44.8082 14.5861 45.2804 14.0304C48.8064 9.87321 52.3184 5.7022 55.8648 1.56291C56.116 1.27118 56.6138 1.05421 57.0073 1.03634C60.8913 0.860209 64.7771 0.723825 68.6633 0.598746C69.5932 0.568843 69.8324 0.858386 69.7427 1.80578C69.7092 2.1606 69.7643 2.34913 70.1482 2.48405C70.8466 2.7291 71.181 3.24328 71.0916 4.02621C70.8787 5.89109 70.7098 7.76108 70.4943 9.6256C70.4112 10.3469 69.9108 10.829 69.0801 10.8625C68.4383 10.8884 68.3267 11.2046 68.2648 11.7177C67.9098 14.6542 67.5452 17.5896 67.1708 20.5239C66.5387 25.5387 65.9054 30.5535 65.2709 35.5681C65.2216 35.9615 65.2154 36.3605 65.1892 36.7569L64.5262 36.9235C64.5368 36.7251 64.5354 36.5253 64.5602 36.3284C64.9905 32.911 65.4222 29.4938 65.8554 26.0766C66.4795 21.0812 67.0967 16.0854 67.7072 11.089C67.7801 10.4953 68.0051 10.2138 68.632 10.2634C69.2946 10.317 69.7526 10.0238 69.8576 9.33278C70.1238 7.58714 70.394 5.8415 70.6234 4.09075C70.7171 3.37565 70.3561 2.99239 69.6195 2.90341C69.598 3.03032 69.5728 3.15868 69.5557 3.28704C69.3522 4.84123 69.1753 6.39943 68.9357 7.94815C68.803 8.81095 68.4299 9.18363 67.6259 9.15154C66.863 9.12054 66.7576 9.52933 66.6894 10.1059C66.2445 13.8551 65.7933 17.6037 65.3358 21.3517C64.6889 26.6335 64.0371 31.9148 63.3805 37.1956C62.0112 37.5172 60.655 37.9169 59.2704 38.1437C56.3377 38.6248 53.3961 39.0523 50.4455 39.4262C49.4245 39.5567 48.3797 39.4805 47.3459 39.4991C47.5669 39.0754 47.689 38.4314 48.0318 38.2771C48.5861 38.0281 49.2852 38.1006 49.9992 38.0299C50.5739 34.8821 51.1661 31.6406 51.7583 28.3992C50.4058 29.7119 49.167 31.0838 47.933 32.4611C46.5327 34.0237 45.1616 35.6122 43.7204 37.1383C43.4097 37.4665 42.8587 37.7703 42.4324 37.7524C41.3348 37.7064 40.2444 37.4789 39.1526 37.3148C38.668 37.2419 38.1681 37.0519 38.1141 36.5224C38.0601 35.9929 38.0605 35.703 38.0605 35.703C37.721 35.703 37.2356 35.6541 37.0394 34.9901C36.2284 32.8203 35.4236 30.6484 34.61 28.4797C34.3446 27.7723 34.059 27.0729 33.7268 26.228C33.566 26.8796 33.4581 27.3529 33.3323 27.8212C32.576 30.6342 31.8233 33.4476 31.0495 36.2555C30.8332 37.0129 31.5921 36.9454 31.9976 37.1099C32.2755 37.2193 32.2882 37.2036 32.188 37.6674ZM38.6924 35.7471C38.7129 36.5647 38.7355 36.5789 39.4513 36.6799C40.1945 36.7853 40.8272 36.9115 41.6805 36.9902C42.4765 37.1055 43.1052 36.9242 43.6621 36.2843C46.1815 33.387 48.6846 30.4726 51.3017 27.6655C52.3305 26.5616 52.2779 25.2529 52.55 23.9667C52.3984 24.0523 52.264 24.1651 52.1536 24.2996C48.8801 28.0039 45.6094 31.7113 42.3413 35.4218C41.9332 35.8871 41.6032 35.9914 40.8957 35.9612C40.1478 35.8937 39.4396 35.8306 38.6924 35.7482V35.7471ZM32.5862 23.1998C31.4171 27.6352 30.2757 31.971 29.1197 36.3579L30.2647 36.7328C30.3679 36.3929 30.4613 36.1242 30.5317 35.8492C31.35 32.6468 32.1037 29.4264 33.0114 26.2502C33.3319 25.1373 33.0982 24.2478 32.5862 23.1998ZM43.1326 16.494C43.1563 15.5762 38.1104 4.14946 37.632 3.90842C39.4969 8.17607 41.3147 12.335 43.1326 16.494Z" fill="#4CBB17"/>
<path d="M39.8637 6.68902L39.3018 5.40723H48.5533C48.5533 5.4539 48.5533 5.50058 48.5533 5.54726L39.8637 6.68902Z" fill="#00AAD0"/>
<path d="M31.2535 44.9281C31.1149 45.346 30.9807 45.7668 30.8367 46.1821C30.4888 47.1893 29.9666 47.5314 28.9368 47.3746C26.6274 47.0231 24.3212 46.6526 22.0133 46.2915C20.4022 46.0392 18.7897 45.7945 17.1797 45.5367C16.2538 45.3886 16.2079 45.3081 16.434 44.4267C16.4704 44.2808 16.4985 44.1349 16.5288 43.9934C15.2649 43.449 15.2649 43.449 15.8574 41.6738C17.2997 42.083 18.7248 42.572 20.1874 42.8841C22.9694 43.4782 25.773 43.9705 28.5674 44.5065C28.7833 44.5481 28.9966 44.6017 29.2114 44.6495C28.8102 45.5403 28.4744 45.7617 27.6543 45.6399C24.4231 45.1593 21.1921 44.6748 17.9612 44.1864C17.2278 44.077 17.3445 44.1411 17.222 44.9521C17.3011 44.9768 17.3814 44.9972 17.4627 45.0134C20.8638 45.5434 24.2652 46.0718 27.667 46.5986C29.8109 46.9268 29.8123 46.9191 30.5176 44.8347L31.2535 44.9281Z" fill="#4CBB17"/>
<path d="M78.4043 31.5525L78.5472 31.5244L78.4849 31.6338C78.4567 31.6081 78.4298 31.5809 78.4043 31.5525Z" fill="#00A6CE"/>
</g>
<defs>
<clipPath id="clip0_3880_6243">
<rect width="84.9481" height="51.9925" fill="white" transform="translate(0 0.59668)"/>
</clipPath>
</defs>
</svg>
