<svg width="193" height="27" viewBox="0 0 193 27" fill="none" xmlns="http://www.w3.org/2000/svg">
<g clip-path="url(#clip0_3888_3075)">
<path d="M0.760014 12.4963C1.11489 10.7456 2.08721 9.41699 3.39929 8.29747C5.49905 6.50598 7.95638 5.38429 10.569 4.58168C11.5554 4.27881 12.5666 4.05386 13.5653 3.79346C13.4718 4.12548 13.3773 4.45732 13.2846 4.78953C13.2087 5.06145 13.2599 5.2513 13.581 5.30889C13.6625 5.32347 13.7277 5.42874 13.8004 5.49227C13.7682 5.49677 13.7325 5.49425 13.7039 5.50684C11.9198 6.301 10.3039 7.32695 9.10308 8.90645C8.47863 9.72832 8.04438 10.6432 8.03053 11.6967C8.00389 13.7139 9.1002 15.103 10.6306 16.236C10.7065 16.3126 10.7724 16.4037 10.8598 16.4636C12.5946 17.6523 14.4968 18.4506 16.551 18.8915C16.6437 18.921 16.7346 18.9618 16.8296 18.9782C18.0915 19.1956 19.348 19.4616 20.6181 19.6081C21.7481 19.7387 22.8933 19.7367 24.0319 19.7932C24.5421 19.7842 25.0577 19.8218 25.5616 19.7572C27.0162 19.5709 28.4679 19.3599 29.9166 19.1243C30.6004 19.0122 31.2691 18.815 31.9449 18.6564L32.51 18.5233L32.8369 18.441C35.0979 17.874 37.2121 16.9924 39.0612 15.5404C39.2796 15.3689 39.4186 15.205 39.3131 14.8798C39.0763 14.1472 39.3671 13.3775 39.9766 12.987C40.6369 12.5643 41.4098 12.6145 42.0066 13.1189C42.543 13.5726 42.7421 14.4225 42.4601 15.0544C42.1444 15.7614 41.4399 16.1341 40.6507 16.0571C40.4564 16.0391 40.1958 16.0877 40.0569 16.2095C37.9388 18.0647 35.5558 19.4821 32.9626 20.5597C32.9235 20.579 32.8859 20.6009 32.8499 20.6254C32.7878 20.6434 32.7239 20.6572 32.664 20.6811C30.4352 21.5782 28.1316 22.2124 25.7631 22.6009C24.9924 22.7269 24.2067 22.7629 23.4276 22.8389C20.973 22.8963 18.5266 22.7849 16.0903 22.4735L15.7277 22.4276L15.0826 22.336C14.9766 22.3125 14.8713 22.286 14.7648 22.2655C13.3857 22.001 12.0022 21.758 10.6293 21.4649C9.9075 21.3108 9.20422 21.069 8.49248 20.8676C8.39315 20.8253 8.29561 20.7787 8.19429 20.7416C6.40658 20.0857 4.71785 19.2508 3.24956 18.0169C2.20778 17.1421 1.65891 16.5115 1.04687 15.2381C0.927736 14.99 0.760914 14.4979 0.702068 14.0068C0.639817 13.5035 0.659385 12.9934 0.760014 12.4963ZM39.3586 15.8735C39.3712 15.8878 39.3845 15.9013 39.3984 15.9142L36.8799 17.8218C36.9891 17.7842 37.1122 17.7631 37.2128 17.7037C38.1211 17.1684 39.0329 16.6382 39.9268 16.0796C40.2615 15.8705 40.5696 15.6939 40.9902 15.6603C41.8462 15.5923 42.3913 14.7965 42.2081 13.9885C42.019 13.1533 41.2259 12.6964 40.4085 12.9516C39.6178 13.1986 39.2242 14.061 39.5714 14.8476C39.7119 15.1661 39.6133 15.3682 39.3675 15.5473C39.0356 15.7893 38.7005 16.0269 38.3667 16.2671L38.4052 16.3465L39.3586 15.8735Z" fill="#00A6CE"/>
<path d="M29.9492 25.9349C28.1748 25.647 26.3979 25.3744 24.6244 25.0805C23.9766 24.9725 23.98 24.9533 24.0912 24.2979C23.9623 24.2619 23.831 24.219 23.6971 24.1872C23.2085 24.0713 23.1551 23.9745 23.2886 23.4763C23.3447 23.2667 23.3816 23.0518 23.4273 22.8395C24.2064 22.7628 24.993 22.7281 25.7628 22.6016C28.1313 22.213 30.4349 21.5789 32.6637 20.6818C32.7235 20.6578 32.7875 20.6443 32.8496 20.626C33.3254 20.8714 33.414 21.0093 33.3521 21.5569C33.196 22.9381 33.022 24.3169 32.8633 25.6978C32.8273 26.0019 32.6427 26.1892 32.3848 26.2481C32.1512 26.3013 30.5229 26.028 29.9492 25.9349ZM24.359 24.7434C24.3829 24.7913 27.3139 25.2095 28.6384 25.4134C29.7151 25.5792 30.7898 25.7598 31.8683 25.9128C32.4339 25.9929 32.5649 25.8768 32.6389 25.3072C32.7161 24.7134 32.7812 24.117 32.8534 23.5221C32.9347 22.8513 33.0235 22.1814 33.0989 21.5101C33.141 21.1344 33.0157 21.0039 32.6333 21.0258C32.4713 22.2613 32.3034 23.5019 32.1474 24.7442C32.0806 25.2743 31.8793 25.457 31.3785 25.3828C29.3305 25.0797 27.2829 24.7746 25.2356 24.4677C24.9602 24.4267 24.6705 24.3778 24.3834 24.3364C24.3539 24.4784 24.3242 24.6756 24.359 24.7434Z" fill="#4CBB17"/>
<path d="M16.5513 18.8909C14.4971 18.45 12.5949 17.6517 10.8601 16.463C10.7727 16.4031 10.7068 16.3121 10.6309 16.2354C11.4498 13.488 12.2684 10.741 13.0866 7.99436C13.3333 7.16277 13.5631 6.32615 13.8007 5.49168C13.7287 5.42815 13.6628 5.32288 13.5813 5.3083C13.2602 5.25071 13.2089 5.06086 13.2849 4.78894C13.3776 4.45673 13.472 4.12489 13.5656 3.79287C13.7118 3.28178 13.8536 2.76908 14.0054 2.25998C14.1329 1.83492 14.2856 1.7336 14.7363 1.70822C15.9733 1.63822 17.2102 1.56858 18.4461 1.48346C18.769 1.46114 18.9916 1.52215 19.094 1.86839C19.1188 1.95297 19.2764 2.05033 19.3743 2.05177C19.6 2.05465 19.7028 2.15218 19.7749 2.35284C19.8514 2.56573 19.9653 2.76494 20.0629 2.9701L20.3402 3.60265C20.8327 4.74035 21.3252 5.87799 21.8178 7.01557C21.9605 7.34489 22.1027 7.6744 22.2666 8.05393C22.5303 7.76186 22.7793 7.50038 23.0124 7.22612C24.7524 5.17459 26.4856 3.11622 28.2357 1.07351C28.3597 0.929543 28.6053 0.822468 28.7995 0.81365C30.7162 0.72673 32.6339 0.659425 34.5517 0.597699C35.0106 0.582943 35.1287 0.72583 35.0844 1.19336C35.0678 1.36846 35.095 1.4615 35.2845 1.52809C35.6291 1.64902 35.7941 1.90276 35.7501 2.28913C35.645 3.20944 35.5616 4.13227 35.4553 5.0524C35.4143 5.40836 35.1673 5.64626 34.7574 5.66282C34.4407 5.6756 34.3856 5.83162 34.355 6.08482C34.1798 7.53397 33.9999 8.98258 33.8151 10.4306C33.5032 12.9054 33.1907 15.3802 32.8775 17.8548C32.8533 18.049 32.8502 18.2459 32.8372 18.4415L32.5101 18.5238C32.5153 18.4259 32.5146 18.3272 32.5268 18.2301C32.7392 16.5436 32.9522 14.8572 33.166 13.1709C33.474 10.7057 33.7786 8.24025 34.0799 5.77457C34.1158 5.4816 34.2269 5.34267 34.5362 5.36715C34.8632 5.3936 35.0892 5.24891 35.1411 4.90789C35.2724 4.04643 35.4058 3.18497 35.519 2.32098C35.5652 1.96808 35.3871 1.77895 35.0236 1.73504C35.0129 1.79766 35.0005 1.86101 34.9921 1.92436C34.8916 2.69134 34.8044 3.4603 34.6861 4.22459C34.6206 4.65037 34.4365 4.83429 34.0397 4.81845C33.6632 4.80316 33.6112 5.00489 33.5776 5.2894C33.358 7.13962 33.1354 8.98954 32.9096 10.8392C32.5903 13.4457 32.2687 16.052 31.9446 18.658C31.2689 18.8167 30.5996 19.014 29.9163 19.1259C28.4691 19.3633 27.0174 19.5743 25.5613 19.7588C25.0574 19.8232 24.5419 19.7856 24.0317 19.7948C24.1407 19.5857 24.201 19.2679 24.3702 19.1918C24.6437 19.0688 24.9887 19.1047 25.3411 19.0697C25.6247 17.5163 25.9169 15.9167 26.2092 14.317C25.5417 14.9649 24.9304 15.6419 24.3214 16.3216C23.6304 17.0927 22.9537 17.8766 22.2425 18.6297C22.0892 18.7917 21.8173 18.9416 21.6069 18.9328C21.0652 18.9101 20.5272 18.7978 19.9884 18.7168C19.7492 18.6809 19.5025 18.5871 19.4758 18.3258C19.4492 18.0645 19.4494 17.9214 19.4494 17.9214C19.2818 17.9214 19.0423 17.8973 18.9455 17.5696C18.5453 16.4989 18.1481 15.427 17.7466 14.3568C17.6156 14.0077 17.4747 13.6625 17.3108 13.2456C17.2314 13.5671 17.1781 13.8007 17.116 14.0318C16.7428 15.42 16.3714 16.8084 15.9895 18.1941C15.8828 18.5678 16.2573 18.5345 16.4574 18.6157C16.5945 18.6697 16.6008 18.662 16.5513 18.8909ZM19.7613 17.9432C19.7713 18.3467 19.7825 18.3537 20.1357 18.4035C20.5025 18.4555 20.8147 18.5178 21.2358 18.5567C21.6287 18.6136 21.9389 18.5241 22.2137 18.2083C23.4571 16.7785 24.6923 15.3403 25.9839 13.955C26.4915 13.4102 26.4656 12.7643 26.5999 12.1296C26.5251 12.1719 26.4588 12.2276 26.4043 12.2939C24.7888 14.122 23.1747 15.9515 21.5619 17.7827C21.3605 18.0123 21.1977 18.0638 20.8486 18.0488C20.4795 18.0155 20.13 17.9844 19.7613 17.9437V17.9432ZM16.7478 11.7512C16.1709 13.94 15.6076 16.0797 15.0372 18.2446L15.6022 18.4296C15.6532 18.2619 15.6992 18.1293 15.734 17.9936C16.1378 16.4132 16.5098 14.824 16.9577 13.2565C17.1159 12.7073 17.0005 12.2684 16.7478 11.7512ZM21.9524 8.44192C21.9641 7.98897 19.474 2.34996 19.2379 2.231C20.1582 4.33706 21.0553 6.38949 21.9524 8.44192Z" fill="#4CBB17"/>
<path d="M20.3388 3.60326L20.0615 2.9707H24.6271C24.6271 2.99374 24.6271 3.01677 24.6271 3.03981L20.3388 3.60326Z" fill="#00AAD0"/>
<path d="M16.09 22.4739C16.0216 22.6801 15.9554 22.8878 15.8843 23.0927C15.7126 23.5898 15.4549 23.7586 14.9467 23.6812C13.807 23.5077 12.669 23.3249 11.53 23.1467C10.735 23.0222 9.93918 22.9015 9.14467 22.7742C8.68775 22.7012 8.66508 22.6614 8.77665 22.2264C8.79465 22.1544 8.8085 22.0825 8.82344 22.0126C8.1997 21.744 8.1997 21.744 8.49214 20.8679C9.20387 21.0698 9.90715 21.3112 10.629 21.4652C12.0019 21.7584 13.3854 22.0013 14.7644 22.2658C14.871 22.2864 14.9762 22.3128 15.0822 22.3364C14.8843 22.776 14.7185 22.8853 14.3138 22.8252C12.7192 22.588 11.1248 22.3489 9.53032 22.1078C9.16842 22.0538 9.22601 22.0855 9.16554 22.4857C9.20458 22.4979 9.24422 22.508 9.28431 22.516C10.9627 22.7775 12.6413 23.0383 14.3201 23.2983C15.3781 23.4602 15.3788 23.4564 15.7268 22.4278L16.09 22.4739Z" fill="#4CBB17"/>
<path d="M39.3584 15.8735L39.4289 15.8596L39.3982 15.9136C39.3842 15.9009 39.371 15.8875 39.3584 15.8735Z" fill="#00A6CE"/>
</g>
<path d="M46.6745 14.304L47.4908 4.81786H49.8694L51.1923 8.25199C51.4175 8.82435 51.6099 9.34979 51.7694 9.82832C51.9289 10.3068 52.0321 10.6446 52.079 10.8417L52.1494 11.1232C52.2995 10.5039 52.6279 9.54683 53.1346 8.25199L54.4717 4.81786H56.8502L57.8354 14.304H55.668L55.3161 10.6306L55.1332 7.85791C54.8892 8.56163 54.5514 9.48584 54.1198 10.6306L52.7827 14.2054H51.502L50.179 10.6306C49.9632 10.0488 49.7802 9.52807 49.6301 9.0683C49.48 8.60854 49.3814 8.28952 49.3345 8.11125L49.2642 7.85791C49.2642 8.5241 49.2219 9.44831 49.1375 10.6306L48.8419 14.304H46.6745ZM62.2207 10.6165H64.5007L64.4022 10.2787C64.1301 9.35917 63.9049 8.5757 63.7266 7.92828C63.5577 7.28086 63.4545 6.86333 63.417 6.67567L63.3607 6.39418C63.2856 6.91024 62.9385 8.20508 62.3192 10.2787L62.2207 10.6165ZM65.5985 14.304L65.0215 12.3617H61.6999L61.1229 14.304H58.8569L62.0236 4.81786H64.7541L67.9208 14.304H65.5985ZM74.6403 5.24009V7.26679C73.8803 6.82579 73.0921 6.6053 72.2758 6.6053C71.9099 6.6053 71.6284 6.68036 71.4313 6.83049C71.2437 6.98061 71.1499 7.17296 71.1499 7.40753C71.1499 7.64211 71.2671 7.85322 71.5017 8.04088C71.7363 8.21915 72.0881 8.4115 72.5573 8.61793C72.8482 8.74929 73.0874 8.86657 73.2751 8.96978C73.4721 9.06361 73.6926 9.19966 73.9366 9.37794C74.1899 9.54683 74.3869 9.7298 74.5277 9.92684C74.6778 10.1145 74.8045 10.3491 74.9077 10.6306C75.0109 10.912 75.0625 11.217 75.0625 11.5454C75.0625 12.3992 74.7482 13.0936 74.1195 13.6284C73.4909 14.1538 72.6558 14.4165 71.6143 14.4165C70.4977 14.4165 69.5876 14.2195 68.8839 13.8254V11.6439C69.7377 12.2632 70.6479 12.5728 71.6143 12.5728C71.9427 12.5728 72.2148 12.4884 72.4306 12.3195C72.6464 12.1412 72.7543 11.9113 72.7543 11.6298C72.7543 11.536 72.7402 11.4469 72.7121 11.3624C72.684 11.278 72.6323 11.1982 72.5573 11.1232C72.4822 11.0481 72.4072 10.9871 72.3321 10.9402C72.2664 10.8839 72.1632 10.8229 72.0225 10.7572C71.8911 10.6822 71.7785 10.6212 71.6847 10.5743C71.5908 10.5273 71.4501 10.4617 71.2624 10.3772C71.0842 10.2928 70.9387 10.2271 70.8261 10.1802C70.2163 9.89869 69.7237 9.55152 69.3483 9.13868C68.9824 8.72583 68.7994 8.17693 68.7994 7.49198C68.7994 6.67567 69.0997 6.01887 69.7002 5.52157C70.3007 5.0149 71.1311 4.76156 72.1914 4.76156C73.139 4.76156 73.9553 4.92107 74.6403 5.24009ZM76.0431 9.53276C76.0431 8.07841 76.4606 6.90555 77.2957 6.01417C78.1402 5.11342 79.2614 4.66304 80.6595 4.66304C82.0669 4.66304 83.1882 5.10873 84.0232 6.0001C84.8583 6.89147 85.2759 8.06903 85.2759 9.53276C85.2759 10.9871 84.8536 12.1647 84.0092 13.0654C83.1741 13.9568 82.0575 14.4025 80.6595 14.4025C79.252 14.4025 78.1308 13.9568 77.2957 13.0654C76.4606 12.174 76.0431 10.9965 76.0431 9.53276ZM78.9846 7.42161C78.5718 7.93767 78.3654 8.64138 78.3654 9.53276C78.3654 10.4241 78.5718 11.1325 78.9846 11.658C79.3975 12.174 79.9558 12.4321 80.6595 12.4321C81.3632 12.4321 81.9215 12.174 82.3343 11.658C82.7472 11.1325 82.9536 10.4241 82.9536 9.53276C82.9536 8.64138 82.7472 7.93767 82.3343 7.42161C81.9215 6.89617 81.3632 6.63344 80.6595 6.63344C79.9558 6.63344 79.3975 6.89617 78.9846 7.42161ZM86.7583 14.304V4.81786H89.1368L91.3465 8.74459C91.6562 9.29818 91.9236 9.81893 92.1488 10.3068C92.3833 10.7854 92.5335 11.1232 92.5991 11.3202L92.7117 11.6298C92.6179 10.9355 92.571 9.97375 92.571 8.74459V4.81786H94.7384V14.304H92.3599L90.0939 10.3772C89.7936 9.87054 89.5262 9.37325 89.2917 8.88534C89.0665 8.38804 88.9117 8.02211 88.8272 7.78754L88.7146 7.43568C88.8554 8.28014 88.9257 9.26065 88.9257 10.3772V14.304H86.7583ZM107.099 5.22601V7.30901C106.396 6.8774 105.612 6.66159 104.749 6.66159C103.989 6.66159 103.351 6.92901 102.835 7.46383C102.319 7.98927 102.061 8.69768 102.061 9.58905C102.061 10.4617 102.319 11.156 102.835 11.6721C103.351 12.1787 104.017 12.4321 104.833 12.4321C105.715 12.4321 106.471 12.2069 107.099 11.7565V13.8817C106.527 14.2383 105.701 14.4165 104.622 14.4165C103.234 14.4165 102.07 13.9709 101.132 13.0795C100.203 12.1787 99.7386 11.0153 99.7386 9.58905C99.7386 8.14409 100.189 6.96654 101.09 6.0564C102 5.14626 103.182 4.69119 104.636 4.69119C105.706 4.69119 106.527 4.86946 107.099 5.22601ZM108.863 14.304V4.81786H111.03V14.304H108.863ZM119.316 4.81786V6.56307H117.008V14.304H114.826V6.56307H112.504V4.81786H119.316ZM128.604 4.81786L125.325 10.8135V14.304H123.157V10.8276L119.92 4.81786H122.454L123.031 6.19714C123.331 6.91024 123.58 7.52013 123.777 8.0268C123.974 8.53348 124.1 8.86188 124.157 9.01201L124.227 9.2372C124.321 8.81497 124.734 7.80161 125.466 6.19714L126.085 4.81786H128.604ZM138.689 5.24009V7.26679C137.929 6.82579 137.141 6.6053 136.325 6.6053C135.959 6.6053 135.678 6.68036 135.481 6.83049C135.293 6.98061 135.199 7.17296 135.199 7.40753C135.199 7.64211 135.316 7.85322 135.551 8.04088C135.785 8.21915 136.137 8.4115 136.606 8.61793C136.897 8.74929 137.137 8.86657 137.324 8.96978C137.521 9.06361 137.742 9.19966 137.986 9.37794C138.239 9.54683 138.436 9.7298 138.577 9.92684C138.727 10.1145 138.854 10.3491 138.957 10.6306C139.06 10.912 139.112 11.217 139.112 11.5454C139.112 12.3992 138.797 13.0936 138.169 13.6284C137.54 14.1538 136.705 14.4165 135.664 14.4165C134.547 14.4165 133.637 14.2195 132.933 13.8254V11.6439C133.787 12.2632 134.697 12.5728 135.664 12.5728C135.992 12.5728 136.264 12.4884 136.48 12.3195C136.696 12.1412 136.804 11.9113 136.804 11.6298C136.804 11.536 136.789 11.4469 136.761 11.3624C136.733 11.278 136.682 11.1982 136.606 11.1232C136.531 11.0481 136.456 10.9871 136.381 10.9402C136.316 10.8839 136.212 10.8229 136.072 10.7572C135.94 10.6822 135.828 10.6212 135.734 10.5743C135.64 10.5273 135.499 10.4617 135.312 10.3772C135.133 10.2928 134.988 10.2271 134.875 10.1802C134.265 9.89869 133.773 9.55152 133.398 9.13868C133.032 8.72583 132.849 8.17693 132.849 7.49198C132.849 6.67567 133.149 6.01887 133.749 5.52157C134.35 5.0149 135.18 4.76156 136.241 4.76156C137.188 4.76156 138.005 4.92107 138.689 5.24009ZM147.453 5.22601V7.30901C146.749 6.8774 145.966 6.66159 145.103 6.66159C144.343 6.66159 143.705 6.92901 143.189 7.46383C142.673 7.98927 142.415 8.69768 142.415 9.58905C142.415 10.4617 142.673 11.156 143.189 11.6721C143.705 12.1787 144.371 12.4321 145.187 12.4321C146.069 12.4321 146.825 12.2069 147.453 11.7565V13.8817C146.881 14.2383 146.055 14.4165 144.976 14.4165C143.587 14.4165 142.424 13.9709 141.486 13.0795C140.557 12.1787 140.092 11.0153 140.092 9.58905C140.092 8.14409 140.543 6.96654 141.443 6.0564C142.354 5.14626 143.536 4.69119 144.99 4.69119C146.06 4.69119 146.881 4.86946 147.453 5.22601ZM154.719 4.81786H156.901V14.304H154.719V10.518H151.243V14.304H149.076V4.81786H151.243V8.67422H154.719V4.81786ZM158.372 9.53276C158.372 8.07841 158.79 6.90555 159.625 6.01417C160.47 5.11342 161.591 4.66304 162.989 4.66304C164.396 4.66304 165.518 5.10873 166.353 6.0001C167.188 6.89147 167.605 8.06903 167.605 9.53276C167.605 10.9871 167.183 12.1647 166.339 13.0654C165.503 13.9568 164.387 14.4025 162.989 14.4025C161.581 14.4025 160.46 13.9568 159.625 13.0654C158.79 12.174 158.372 10.9965 158.372 9.53276ZM161.314 7.42161C160.901 7.93767 160.695 8.64138 160.695 9.53276C160.695 10.4241 160.901 11.1325 161.314 11.658C161.727 12.174 162.285 12.4321 162.989 12.4321C163.693 12.4321 164.251 12.174 164.664 11.658C165.077 11.1325 165.283 10.4241 165.283 9.53276C165.283 8.64138 165.077 7.93767 164.664 7.42161C164.251 6.89617 163.693 6.63344 162.989 6.63344C162.285 6.63344 161.727 6.89617 161.314 7.42161ZM168.736 9.53276C168.736 8.07841 169.153 6.90555 169.988 6.01417C170.833 5.11342 171.954 4.66304 173.352 4.66304C174.76 4.66304 175.881 5.10873 176.716 6.0001C177.551 6.89147 177.969 8.06903 177.969 9.53276C177.969 10.9871 177.546 12.1647 176.702 13.0654C175.867 13.9568 174.75 14.4025 173.352 14.4025C171.945 14.4025 170.823 13.9568 169.988 13.0654C169.153 12.174 168.736 10.9965 168.736 9.53276ZM171.677 7.42161C171.264 7.93767 171.058 8.64138 171.058 9.53276C171.058 10.4241 171.264 11.1325 171.677 11.658C172.09 12.174 172.648 12.4321 173.352 12.4321C174.056 12.4321 174.614 12.174 175.027 11.658C175.44 11.1325 175.646 10.4241 175.646 9.53276C175.646 8.64138 175.44 7.93767 175.027 7.42161C174.614 6.89617 174.056 6.63344 173.352 6.63344C172.648 6.63344 172.09 6.89617 171.677 7.42161ZM181.618 12.4039H185.123V14.304H179.451V4.81786H181.618V12.4039ZM191.798 5.24009V7.26679C191.038 6.82579 190.25 6.6053 189.434 6.6053C189.068 6.6053 188.786 6.68036 188.589 6.83049C188.401 6.98061 188.308 7.17296 188.308 7.40753C188.308 7.64211 188.425 7.85322 188.66 8.04088C188.894 8.21915 189.246 8.4115 189.715 8.61793C190.006 8.74929 190.245 8.86657 190.433 8.96978C190.63 9.06361 190.85 9.19966 191.094 9.37794C191.348 9.54683 191.545 9.7298 191.685 9.92684C191.836 10.1145 191.962 10.3491 192.065 10.6306C192.169 10.912 192.22 11.217 192.22 11.5454C192.22 12.3992 191.906 13.0936 191.277 13.6284C190.649 14.1538 189.814 14.4165 188.772 14.4165C187.656 14.4165 186.745 14.2195 186.042 13.8254V11.6439C186.896 12.2632 187.806 12.5728 188.772 12.5728C189.101 12.5728 189.373 12.4884 189.588 12.3195C189.804 12.1412 189.912 11.9113 189.912 11.6298C189.912 11.536 189.898 11.4469 189.87 11.3624C189.842 11.278 189.79 11.1982 189.715 11.1232C189.64 11.0481 189.565 10.9871 189.49 10.9402C189.424 10.8839 189.321 10.8229 189.18 10.7572C189.049 10.6822 188.936 10.6212 188.842 10.5743C188.749 10.5273 188.608 10.4617 188.42 10.3772C188.242 10.2928 188.097 10.2271 187.984 10.1802C187.374 9.89869 186.881 9.55152 186.506 9.13868C186.14 8.72583 185.957 8.17693 185.957 7.49198C185.957 6.67567 186.257 6.01887 186.858 5.52157C187.459 5.0149 188.289 4.76156 189.349 4.76156C190.297 4.76156 191.113 4.92107 191.798 5.24009Z" fill="#ADBFD6"/>
<path d="M49.8422 19.4064V21.4891H49.8357L49.8422 21.5085C49.4929 21.7715 49.0423 21.9031 48.4903 21.9031C47.8177 21.9031 47.2765 21.7047 46.8668 21.308C46.4572 20.907 46.2524 20.3593 46.2524 19.6651C46.2524 19.0053 46.455 18.4663 46.8604 18.0481C47.27 17.6255 47.7853 17.4142 48.4063 17.4142C48.9194 17.4142 49.3441 17.5134 49.6805 17.7117V18.2744C49.3269 18.0416 48.9172 17.9252 48.4515 17.9252C47.9643 17.9252 47.5676 18.0847 47.2614 18.4038C46.9552 18.7186 46.8022 19.139 46.8022 19.6651C46.8022 20.2041 46.9531 20.6288 47.2549 20.9393C47.5568 21.2455 47.9729 21.3985 48.5033 21.3985C48.7965 21.3985 49.0682 21.3403 49.3183 21.2239V19.8656H48.361V19.4064H49.8422ZM51.297 17.9446V19.6845H51.9568C52.2543 19.6845 52.4807 19.6047 52.6359 19.4452C52.7955 19.2813 52.8752 19.0722 52.8752 18.8178C52.8752 18.2356 52.5497 17.9446 51.8985 17.9446H51.297ZM53.6708 21.8513H53.0434L51.9762 20.1308H51.9244H51.297V21.8513H50.7731V17.4918H51.8662C52.3707 17.4918 52.7523 17.6104 53.0111 17.8475C53.2741 18.0847 53.4056 18.4124 53.4056 18.8307C53.397 19.1325 53.3172 19.3891 53.1663 19.6004C53.0154 19.8117 52.8019 19.9605 52.526 20.0467L53.6708 21.8513ZM54.1291 19.6522C54.1291 18.9665 54.3037 18.421 54.653 18.0157C55.0066 17.6104 55.4831 17.4077 56.0825 17.4077C56.6948 17.4077 57.1734 17.6104 57.5184 18.0157C57.8677 18.4167 58.0423 18.9622 58.0423 19.6522C58.0423 20.3378 57.8655 20.8854 57.5119 21.2951C57.1626 21.7004 56.6883 21.9031 56.0889 21.9031C55.4982 21.9031 55.0239 21.6982 54.6659 21.2886C54.308 20.8789 54.1291 20.3335 54.1291 19.6522ZM54.6789 19.6522C54.6789 20.1912 54.8061 20.6181 55.0605 20.9328C55.3192 21.2476 55.662 21.405 56.0889 21.405C56.5331 21.405 56.8759 21.2498 57.1174 20.9393C57.3632 20.6288 57.4861 20.1998 57.4861 19.6522C57.4861 19.1045 57.3632 18.6755 57.1174 18.365C56.8716 18.0545 56.5266 17.8993 56.0825 17.8993C55.6426 17.8993 55.2977 18.0567 55.0476 18.3715C54.8018 18.6819 54.6789 19.1088 54.6789 19.6522ZM61.1418 17.5565H61.6657L62.1444 19.1088L62.8041 21.3209C63.0025 20.368 63.162 19.6327 63.2828 19.1153L63.6515 17.4918H64.1818L63.1599 21.8513H62.4872L62.0668 20.4736L61.4135 18.2938C61.2798 18.8027 61.0728 19.5293 60.7925 20.4736L60.385 21.8513H59.7188L58.5804 17.4918H59.1302L59.5377 19.1088L60.0746 21.3015C60.3161 20.4175 60.5209 19.6866 60.689 19.1088L61.1418 17.5565ZM64.9546 21.8513V17.4918H65.4786V21.8513H64.9546ZM66.5139 21.8513V17.4918H67.1737L68.2668 19.3287L69.3728 21.2174C69.3556 20.7992 69.347 20.1718 69.347 19.3352V17.4918H69.8709V21.8513H69.2111L68.118 20.0273C67.8981 19.6608 67.6954 19.3201 67.51 19.0053C67.3246 18.6862 67.1931 18.4577 67.1154 18.3197L67.0055 18.1192C67.027 18.5677 67.0378 19.1994 67.0378 20.0144V21.8513H66.5139ZM74.2682 19.4064V21.4891H74.2618L74.2682 21.5085C73.919 21.7715 73.4684 21.9031 72.9164 21.9031C72.2437 21.9031 71.7026 21.7047 71.2929 21.308C70.8833 20.907 70.6784 20.3593 70.6784 19.6651C70.6784 19.0053 70.8811 18.4663 71.2864 18.0481C71.6961 17.6255 72.2114 17.4142 72.8323 17.4142C73.3455 17.4142 73.7702 17.5134 74.1065 17.7117V18.2744C73.753 18.0416 73.3433 17.9252 72.8776 17.9252C72.3903 17.9252 71.9936 18.0847 71.6875 18.4038C71.3813 18.7186 71.2282 19.139 71.2282 19.6651C71.2282 20.2041 71.3791 20.6288 71.681 20.9393C71.9828 21.2455 72.399 21.3985 72.9293 21.3985C73.2226 21.3985 73.4942 21.3403 73.7443 21.2239V19.8656H72.787V19.4064H74.2682ZM80.1805 19.4064V21.4891H80.1741L80.1805 21.5085C79.8313 21.7715 79.3806 21.9031 78.8287 21.9031C78.156 21.9031 77.6148 21.7047 77.2052 21.308C76.7955 20.907 76.5907 20.3593 76.5907 19.6651C76.5907 19.0053 76.7934 18.4663 77.1987 18.0481C77.6084 17.6255 78.1237 17.4142 78.7446 17.4142C79.2577 17.4142 79.6825 17.5134 80.0188 17.7117V18.2744C79.6652 18.0416 79.2556 17.9252 78.7899 17.9252C78.3026 17.9252 77.9059 18.0847 77.5997 18.4038C77.2936 18.7186 77.1405 19.139 77.1405 19.6651C77.1405 20.2041 77.2914 20.6288 77.5933 20.9393C77.8951 21.2455 78.3112 21.3985 78.8416 21.3985C79.1348 21.3985 79.4065 21.3403 79.6566 21.2239V19.8656H78.6993V19.4064H80.1805ZM81.6354 17.9446V19.6845H82.2951C82.5926 19.6845 82.819 19.6047 82.9743 19.4452C83.1338 19.2813 83.2136 19.0722 83.2136 18.8178C83.2136 18.2356 82.888 17.9446 82.2369 17.9446H81.6354ZM84.0092 21.8513H83.3818L82.3145 20.1308H82.2628H81.6354V21.8513H81.1114V17.4918H82.2046C82.7091 17.4918 83.0907 17.6104 83.3494 17.8475C83.6125 18.0847 83.744 18.4124 83.744 18.8307C83.7353 19.1325 83.6556 19.3891 83.5047 19.6004C83.3537 19.8117 83.1403 19.9605 82.8643 20.0467L84.0092 21.8513ZM85.1789 21.3921H87.087V21.8513H84.655V17.4918H87.0547V17.951H85.1789V19.4452H86.8348V19.9044H85.1789V21.3921ZM88.7233 20.2602H90.2692L90.1851 20.0079L89.506 17.9122C89.4542 18.0976 89.2214 18.7984 88.8074 20.0144L88.7233 20.2602ZM90.7996 21.8513L90.418 20.7065H88.5746L88.1865 21.8513H87.6237L89.1438 17.4918H89.8682L91.3623 21.8513H90.7996ZM94.5863 17.4918V17.951H93.4091V21.8513H92.8852V17.951H91.708V17.4918H94.5863ZM95.21 21.8513V17.4918H95.8697L96.9628 19.3287L98.0689 21.2174C98.0516 20.7992 98.043 20.1718 98.043 19.3352V17.4918H98.5669V21.8513H97.9072L96.8141 20.0273C96.5941 19.6608 96.3915 19.3201 96.2061 19.0053C96.0206 18.6862 95.8891 18.4577 95.8115 18.3197L95.7015 18.1192C95.7231 18.5677 95.7339 19.1994 95.7339 20.0144V21.8513H95.21ZM100.086 21.3921H101.994V21.8513H99.5621V17.4918H101.962V17.951H100.086V19.4452H101.742V19.9044H100.086V21.3921ZM105.086 17.6535V18.2033C104.823 18.0308 104.508 17.9446 104.141 17.9446C103.878 17.9446 103.669 18.0071 103.514 18.1321C103.359 18.2529 103.281 18.4124 103.281 18.6108C103.281 18.7143 103.3 18.807 103.339 18.8889C103.382 18.9708 103.456 19.0485 103.559 19.1218C103.663 19.1908 103.751 19.2447 103.824 19.2835C103.898 19.318 104.012 19.3697 104.167 19.4387C104.314 19.5034 104.426 19.5551 104.504 19.5939C104.581 19.6284 104.68 19.6866 104.801 19.7686C104.926 19.8462 105.019 19.9238 105.079 20.0014C105.144 20.0747 105.2 20.1739 105.247 20.299C105.299 20.4197 105.325 20.5512 105.325 20.6935C105.325 21.0773 105.193 21.3748 104.93 21.5861C104.667 21.7931 104.329 21.8966 103.915 21.8966C103.458 21.8966 103.07 21.8039 102.751 21.6185V21.0557C103.065 21.2929 103.449 21.4115 103.902 21.4115C104.174 21.4115 104.387 21.3511 104.542 21.2304C104.698 21.1096 104.775 20.935 104.775 20.7065C104.775 20.6116 104.756 20.5275 104.717 20.4542C104.683 20.3766 104.622 20.3076 104.536 20.2472C104.454 20.1825 104.374 20.1308 104.297 20.092C104.223 20.0489 104.122 19.9971 103.993 19.9367C103.967 19.9238 103.928 19.9066 103.876 19.885C103.691 19.8031 103.548 19.7362 103.449 19.6845C103.354 19.6327 103.24 19.5573 103.106 19.4581C102.977 19.3546 102.882 19.236 102.822 19.1024C102.761 18.9687 102.731 18.8134 102.731 18.6367C102.731 18.2658 102.863 17.9769 103.126 17.7699C103.393 17.5586 103.727 17.453 104.128 17.453C104.504 17.453 104.823 17.5198 105.086 17.6535ZM108.478 17.6535V18.2033C108.215 18.0308 107.9 17.9446 107.533 17.9446C107.27 17.9446 107.061 18.0071 106.906 18.1321C106.751 18.2529 106.673 18.4124 106.673 18.6108C106.673 18.7143 106.692 18.807 106.731 18.8889C106.774 18.9708 106.848 19.0485 106.951 19.1218C107.055 19.1908 107.143 19.2447 107.216 19.2835C107.29 19.318 107.404 19.3697 107.559 19.4387C107.706 19.5034 107.818 19.5551 107.896 19.5939C107.973 19.6284 108.072 19.6866 108.193 19.7686C108.318 19.8462 108.411 19.9238 108.471 20.0014C108.536 20.0747 108.592 20.1739 108.639 20.299C108.691 20.4197 108.717 20.5512 108.717 20.6935C108.717 21.0773 108.585 21.3748 108.322 21.5861C108.059 21.7931 107.721 21.8966 107.307 21.8966C106.85 21.8966 106.462 21.8039 106.143 21.6185V21.0557C106.457 21.2929 106.841 21.4115 107.294 21.4115C107.566 21.4115 107.779 21.3511 107.934 21.2304C108.09 21.1096 108.167 20.935 108.167 20.7065C108.167 20.6116 108.148 20.5275 108.109 20.4542C108.074 20.3766 108.014 20.3076 107.928 20.2472C107.846 20.1825 107.766 20.1308 107.689 20.092C107.615 20.0489 107.514 19.9971 107.385 19.9367C107.359 19.9238 107.32 19.9066 107.268 19.885C107.083 19.8031 106.94 19.7362 106.841 19.6845C106.746 19.6327 106.632 19.5573 106.498 19.4581C106.369 19.3546 106.274 19.236 106.214 19.1024C106.153 18.9687 106.123 18.8134 106.123 18.6367C106.123 18.2658 106.255 17.9769 106.518 17.7699C106.785 17.5586 107.119 17.453 107.52 17.453C107.896 17.453 108.215 17.5198 108.478 17.6535ZM113.662 17.4918V17.951H112.485V21.8513H111.961V17.951H110.784V17.4918H113.662ZM114.098 19.6522C114.098 18.9665 114.273 18.421 114.622 18.0157C114.976 17.6104 115.452 17.4077 116.052 17.4077C116.664 17.4077 117.143 17.6104 117.488 18.0157C117.837 18.4167 118.012 18.9622 118.012 19.6522C118.012 20.3378 117.835 20.8854 117.481 21.2951C117.132 21.7004 116.658 21.9031 116.058 21.9031C115.467 21.9031 114.993 21.6982 114.635 21.2886C114.277 20.8789 114.098 20.3335 114.098 19.6522ZM114.648 19.6522C114.648 20.1912 114.775 20.6181 115.03 20.9328C115.288 21.2476 115.631 21.405 116.058 21.405C116.502 21.405 116.845 21.2498 117.087 20.9393C117.332 20.6288 117.455 20.1998 117.455 19.6522C117.455 19.1045 117.332 18.6755 117.087 18.365C116.841 18.0545 116.496 17.8993 116.052 17.8993C115.612 17.8993 115.267 18.0567 115.017 18.3715C114.771 18.6819 114.648 19.1088 114.648 19.6522ZM122.217 19.4064V21.4891H122.211L122.217 21.5085C121.868 21.7715 121.417 21.9031 120.865 21.9031C120.193 21.9031 119.651 21.7047 119.242 21.308C118.832 20.907 118.627 20.3593 118.627 19.6651C118.627 19.0053 118.83 18.4663 119.235 18.0481C119.645 17.6255 120.16 17.4142 120.781 17.4142C121.294 17.4142 121.719 17.5134 122.055 17.7117V18.2744C121.702 18.0416 121.292 17.9252 120.826 17.9252C120.339 17.9252 119.942 18.0847 119.636 18.4038C119.33 18.7186 119.177 19.139 119.177 19.6651C119.177 20.2041 119.328 20.6288 119.63 20.9393C119.932 21.2455 120.348 21.3985 120.878 21.3985C121.171 21.3985 121.443 21.3403 121.693 21.2239V19.8656H120.736V19.4064H122.217ZM123.672 21.3921H125.58V21.8513H123.148V17.4918H125.548V17.951H123.672V19.4452H125.328V19.9044H123.672V21.3921ZM128.885 17.4918V17.951H127.708V21.8513H127.184V17.951H126.007V17.4918H128.885ZM132.148 17.4918H132.672V21.8513H132.148V19.8785H130.033V21.8513H129.509V17.4918H130.033V19.4064H132.148V17.4918ZM134.189 21.3921H136.097V21.8513H133.665V17.4918H136.065V17.951H134.189V19.4452H135.845V19.9044H134.189V21.3921ZM137.429 17.9446V19.6845H138.089C138.387 19.6845 138.613 19.6047 138.768 19.4452C138.928 19.2813 139.008 19.0722 139.008 18.8178C139.008 18.2356 138.682 17.9446 138.031 17.9446H137.429ZM139.803 21.8513H139.176L138.109 20.1308H138.057H137.429V21.8513H136.905V17.4918H137.999C138.503 17.4918 138.885 17.6104 139.143 17.8475C139.406 18.0847 139.538 18.4124 139.538 18.8307C139.529 19.1325 139.45 19.3891 139.299 19.6004C139.148 19.8117 138.934 19.9605 138.658 20.0467L139.803 21.8513Z" fill="#ADBFD6"/>
<defs>
<clipPath id="clip0_3888_3075">
<rect width="41.9214" height="25.658" fill="white" transform="translate(0.666504 0.59668)"/>
</clipPath>
</defs>
</svg>
